<svg width="130" height="130" viewBox="0 0 130 130" fill="none" xmlns="http://www.w3.org/2000/svg">
<rect width="130" height="130" rx="20" fill="#ECECEC"/>
<path d="M69.9474 43.8947H69.9632M66 64.4211H55.7368C54.4806 64.4211 53.2757 63.922 52.3874 63.0337C51.4991 62.1453 51 60.9405 51 59.6842V40.7368C51 39.4806 51.4991 38.2757 52.3874 37.3874C53.2757 36.4991 54.4806 36 55.7368 36H74.6842C75.9405 36 77.1453 36.4991 78.0337 37.3874C78.922 38.2757 79.4211 39.4806 79.4211 40.7368V51" stroke="#686868" stroke-width="2" stroke-linecap="round" stroke-linejoin="round"/>
<path d="M51 56.5262L58.8947 48.6315C60.36 47.2215 62.1663 47.2215 63.6316 48.6315L69.9474 54.9473" stroke="#686868" stroke-width="2" stroke-linecap="round" stroke-linejoin="round"/>
<path d="M68.3687 53.3681L69.9476 51.7892C71.0055 50.7724 72.2371 50.4881 73.3929 50.9366M71.5265 61.2629H81.0002M76.2634 56.526V65.9997" stroke="#686868" stroke-width="2" stroke-linecap="round" stroke-linejoin="round"/>
<path d="M39.8477 77.2227H41.3125C41.2656 77.7812 41.1094 78.2793 40.8438 78.7168C40.5781 79.1504 40.2051 79.4922 39.7246 79.7422C39.2441 79.9922 38.6602 80.1172 37.9727 80.1172C37.4453 80.1172 36.9707 80.0234 36.5488 79.8359C36.127 79.6445 35.7656 79.375 35.4648 79.0273C35.1641 78.6758 34.9336 78.252 34.7734 77.7559C34.6172 77.2598 34.5391 76.7051 34.5391 76.0918V75.3828C34.5391 74.7695 34.6191 74.2148 34.7793 73.7188C34.9434 73.2227 35.1777 72.7988 35.4824 72.4473C35.7871 72.0918 36.1523 71.8203 36.5781 71.6328C37.0078 71.4453 37.4902 71.3516 38.0254 71.3516C38.7051 71.3516 39.2793 71.4766 39.748 71.7266C40.2168 71.9766 40.5801 72.3223 40.8379 72.7637C41.0996 73.2051 41.2598 73.7109 41.3184 74.2812H39.8535C39.8145 73.9141 39.7285 73.5996 39.5957 73.3379C39.4668 73.0762 39.2754 72.877 39.0215 72.7402C38.7676 72.5996 38.4355 72.5293 38.0254 72.5293C37.6895 72.5293 37.3965 72.5918 37.1465 72.7168C36.8965 72.8418 36.6875 73.0254 36.5195 73.2676C36.3516 73.5098 36.2246 73.8086 36.1387 74.1641C36.0566 74.5156 36.0156 74.918 36.0156 75.3711V76.0918C36.0156 76.5215 36.0527 76.9121 36.127 77.2637C36.2051 77.6113 36.3223 77.9102 36.4785 78.1602C36.6387 78.4102 36.8418 78.6035 37.0879 78.7402C37.334 78.877 37.6289 78.9453 37.9727 78.9453C38.3906 78.9453 38.7285 78.8789 38.9863 78.7461C39.248 78.6133 39.4453 78.4199 39.5781 78.166C39.7148 77.9082 39.8047 77.5938 39.8477 77.2227ZM44.0195 71V80H42.6016V71H44.0195ZM47.0781 73.6602V80H45.6602V73.6602H47.0781ZM45.5664 71.9961C45.5664 71.7812 45.6367 71.6035 45.7773 71.4629C45.9219 71.3184 46.1211 71.2461 46.375 71.2461C46.625 71.2461 46.8223 71.3184 46.9668 71.4629C47.1113 71.6035 47.1836 71.7812 47.1836 71.9961C47.1836 72.207 47.1113 72.3828 46.9668 72.5234C46.8223 72.6641 46.625 72.7344 46.375 72.7344C46.1211 72.7344 45.9219 72.6641 45.7773 72.5234C45.6367 72.3828 45.5664 72.207 45.5664 71.9961ZM51.2148 78.9922C51.4453 78.9922 51.6523 78.9473 51.8359 78.8574C52.0234 78.7637 52.1738 78.6348 52.2871 78.4707C52.4043 78.3066 52.4688 78.1172 52.4805 77.9023H53.8105C53.8027 78.3125 53.6816 78.6855 53.4473 79.0215C53.2129 79.3574 52.9023 79.625 52.5156 79.8242C52.1289 80.0195 51.7012 80.1172 51.2324 80.1172C50.748 80.1172 50.3262 80.0352 49.9668 79.8711C49.6074 79.7031 49.3086 79.4727 49.0703 79.1797C48.832 78.8867 48.6523 78.5488 48.5312 78.166C48.4141 77.7832 48.3555 77.373 48.3555 76.9355V76.7305C48.3555 76.293 48.4141 75.8828 48.5312 75.5C48.6523 75.1133 48.832 74.7734 49.0703 74.4805C49.3086 74.1875 49.6074 73.959 49.9668 73.7949C50.3262 73.627 50.7461 73.543 51.2266 73.543C51.7344 73.543 52.1797 73.6445 52.5625 73.8477C52.9453 74.0469 53.2461 74.3262 53.4648 74.6855C53.6875 75.041 53.8027 75.4551 53.8105 75.9277H52.4805C52.4688 75.6934 52.4102 75.4824 52.3047 75.2949C52.2031 75.1035 52.0586 74.9512 51.8711 74.8379C51.6875 74.7246 51.4668 74.668 51.209 74.668C50.9238 74.668 50.6875 74.7266 50.5 74.8438C50.3125 74.957 50.166 75.1133 50.0605 75.3125C49.9551 75.5078 49.8789 75.7285 49.832 75.9746C49.7891 76.2168 49.7676 76.4688 49.7676 76.7305V76.9355C49.7676 77.1973 49.7891 77.4512 49.832 77.6973C49.875 77.9434 49.9492 78.1641 50.0547 78.3594C50.1641 78.5508 50.3125 78.7051 50.5 78.8223C50.6875 78.9355 50.9258 78.9922 51.2148 78.9922ZM56.3184 71V80H54.9004V71H56.3184ZM60.2559 73.6602L57.4961 76.7188L55.9844 78.2656L55.6152 77.0703L56.7578 75.6582L58.5508 73.6602H60.2559ZM58.8555 80L56.7988 77.0234L57.6895 76.0332L60.4902 80H58.8555ZM67.0469 73.6602V74.6914H63.4727V73.6602H67.0469ZM64.5039 72.1074H65.916V78.248C65.916 78.4434 65.9434 78.5938 65.998 78.6992C66.0566 78.8008 66.1367 78.8691 66.2383 78.9043C66.3398 78.9395 66.459 78.957 66.5957 78.957C66.6934 78.957 66.7871 78.9512 66.877 78.9395C66.9668 78.9277 67.0391 78.916 67.0938 78.9043L67.0996 79.9824C66.9824 80.0176 66.8457 80.0488 66.6895 80.0762C66.5371 80.1035 66.3613 80.1172 66.1621 80.1172C65.8379 80.1172 65.5508 80.0605 65.3008 79.9473C65.0508 79.8301 64.8555 79.6406 64.7148 79.3789C64.5742 79.1172 64.5039 78.7695 64.5039 78.3359V72.1074ZM67.7266 76.9004V76.7656C67.7266 76.3086 67.793 75.8848 67.9258 75.4941C68.0586 75.0996 68.25 74.7578 68.5 74.4688C68.7539 74.1758 69.0625 73.9492 69.4258 73.7891C69.793 73.625 70.207 73.543 70.668 73.543C71.1328 73.543 71.5469 73.625 71.9102 73.7891C72.2773 73.9492 72.5879 74.1758 72.8418 74.4688C73.0957 74.7578 73.2891 75.0996 73.4219 75.4941C73.5547 75.8848 73.6211 76.3086 73.6211 76.7656V76.9004C73.6211 77.3574 73.5547 77.7812 73.4219 78.1719C73.2891 78.5625 73.0957 78.9043 72.8418 79.1973C72.5879 79.4863 72.2793 79.7129 71.916 79.877C71.5527 80.0371 71.1406 80.1172 70.6797 80.1172C70.2148 80.1172 69.7988 80.0371 69.4316 79.877C69.0684 79.7129 68.7598 79.4863 68.5059 79.1973C68.252 78.9043 68.0586 78.5625 67.9258 78.1719C67.793 77.7812 67.7266 77.3574 67.7266 76.9004ZM69.1387 76.7656V76.9004C69.1387 77.1855 69.168 77.4551 69.2266 77.709C69.2852 77.9629 69.377 78.1855 69.502 78.377C69.627 78.5684 69.7871 78.7188 69.9824 78.8281C70.1777 78.9375 70.4102 78.9922 70.6797 78.9922C70.9414 78.9922 71.168 78.9375 71.3594 78.8281C71.5547 78.7188 71.7148 78.5684 71.8398 78.377C71.9648 78.1855 72.0566 77.9629 72.1152 77.709C72.1777 77.4551 72.209 77.1855 72.209 76.9004V76.7656C72.209 76.4844 72.1777 76.2188 72.1152 75.9688C72.0566 75.7148 71.9629 75.4902 71.834 75.2949C71.709 75.0996 71.5488 74.9473 71.3535 74.8379C71.1621 74.7246 70.9336 74.668 70.668 74.668C70.4023 74.668 70.1719 74.7246 69.9766 74.8379C69.7852 74.9473 69.627 75.0996 69.502 75.2949C69.377 75.4902 69.2852 75.7148 69.2266 75.9688C69.168 76.2188 69.1387 76.4844 69.1387 76.7656ZM81.3672 78.7285V75.7051C81.3672 75.4785 81.3262 75.2832 81.2441 75.1191C81.1621 74.9551 81.0371 74.8281 80.8691 74.7383C80.7051 74.6484 80.498 74.6035 80.248 74.6035C80.0176 74.6035 79.8184 74.6426 79.6504 74.7207C79.4824 74.7988 79.3516 74.9043 79.2578 75.0371C79.1641 75.1699 79.1172 75.3203 79.1172 75.4883H77.7109C77.7109 75.2383 77.7715 74.9961 77.8926 74.7617C78.0137 74.5273 78.1895 74.3184 78.4199 74.1348C78.6504 73.9512 78.9258 73.8066 79.2461 73.7012C79.5664 73.5957 79.9258 73.543 80.3242 73.543C80.8008 73.543 81.2227 73.623 81.5898 73.7832C81.9609 73.9434 82.252 74.1855 82.4629 74.5098C82.6777 74.8301 82.7852 75.2324 82.7852 75.7168V78.5352C82.7852 78.8242 82.8047 79.084 82.8438 79.3145C82.8867 79.541 82.9473 79.7383 83.0254 79.9062V80H81.5781C81.5117 79.8477 81.459 79.6543 81.4199 79.4199C81.3848 79.1816 81.3672 78.9512 81.3672 78.7285ZM81.5723 76.1445L81.584 77.0176H80.5703C80.3086 77.0176 80.0781 77.043 79.8789 77.0938C79.6797 77.1406 79.5137 77.2109 79.3809 77.3047C79.248 77.3984 79.1484 77.5117 79.082 77.6445C79.0156 77.7773 78.9824 77.9277 78.9824 78.0957C78.9824 78.2637 79.0215 78.418 79.0996 78.5586C79.1777 78.6953 79.291 78.8027 79.4395 78.8809C79.5918 78.959 79.7754 78.998 79.9902 78.998C80.2793 78.998 80.5312 78.9395 80.7461 78.8223C80.9648 78.7012 81.1367 78.5547 81.2617 78.3828C81.3867 78.207 81.4531 78.041 81.4609 77.8848L81.918 78.5117C81.8711 78.6719 81.791 78.8438 81.6777 79.0273C81.5645 79.2109 81.416 79.3867 81.2324 79.5547C81.0527 79.7188 80.8359 79.8535 80.582 79.959C80.332 80.0645 80.043 80.1172 79.7148 80.1172C79.3008 80.1172 78.9316 80.0352 78.6074 79.8711C78.2832 79.7031 78.0293 79.4785 77.8457 79.1973C77.6621 78.9121 77.5703 78.5898 77.5703 78.2305C77.5703 77.8945 77.6328 77.5977 77.7578 77.3398C77.8867 77.0781 78.0742 76.8594 78.3203 76.6836C78.5703 76.5078 78.875 76.375 79.2344 76.2852C79.5938 76.1914 80.0039 76.1445 80.4648 76.1445H81.5723ZM88.1289 78.6875V71H89.5469V80H88.2637L88.1289 78.6875ZM84.0039 76.9004V76.7773C84.0039 76.2969 84.0605 75.8594 84.1738 75.4648C84.2871 75.0664 84.4512 74.7246 84.666 74.4395C84.8809 74.1504 85.1426 73.9297 85.4512 73.7773C85.7598 73.6211 86.1074 73.543 86.4941 73.543C86.877 73.543 87.2129 73.6172 87.502 73.7656C87.791 73.9141 88.0371 74.127 88.2402 74.4043C88.4434 74.6777 88.6055 75.0059 88.7266 75.3887C88.8477 75.7676 88.9336 76.1895 88.9844 76.6543V77.0469C88.9336 77.5 88.8477 77.9141 88.7266 78.2891C88.6055 78.6641 88.4434 78.9883 88.2402 79.2617C88.0371 79.5352 87.7891 79.7461 87.4961 79.8945C87.207 80.043 86.8691 80.1172 86.4824 80.1172C86.0996 80.1172 85.7539 80.0371 85.4453 79.877C85.1406 79.7168 84.8809 79.4922 84.666 79.2031C84.4512 78.9141 84.2871 78.5742 84.1738 78.1836C84.0605 77.7891 84.0039 77.3613 84.0039 76.9004ZM85.416 76.7773V76.9004C85.416 77.1895 85.4414 77.459 85.4922 77.709C85.5469 77.959 85.6309 78.1797 85.7441 78.3711C85.8574 78.5586 86.0039 78.707 86.1836 78.8164C86.3672 78.9219 86.5859 78.9746 86.8398 78.9746C87.1602 78.9746 87.4238 78.9043 87.6309 78.7637C87.8379 78.623 88 78.4336 88.1172 78.1953C88.2383 77.9531 88.3203 77.6836 88.3633 77.3867V76.3262C88.3398 76.0957 88.291 75.8809 88.2168 75.6816C88.1465 75.4824 88.0508 75.3086 87.9297 75.1602C87.8086 75.0078 87.6582 74.8906 87.4785 74.8086C87.3027 74.7227 87.0938 74.6797 86.8516 74.6797C86.5938 74.6797 86.375 74.7344 86.1953 74.8438C86.0156 74.9531 85.8672 75.1035 85.75 75.2949C85.6367 75.4863 85.5527 75.709 85.498 75.9629C85.4434 76.2168 85.416 76.4883 85.416 76.7773ZM94.8906 78.6875V71H96.3086V80H95.0254L94.8906 78.6875ZM90.7656 76.9004V76.7773C90.7656 76.2969 90.8223 75.8594 90.9355 75.4648C91.0488 75.0664 91.2129 74.7246 91.4277 74.4395C91.6426 74.1504 91.9043 73.9297 92.2129 73.7773C92.5215 73.6211 92.8691 73.543 93.2559 73.543C93.6387 73.543 93.9746 73.6172 94.2637 73.7656C94.5527 73.9141 94.7988 74.127 95.002 74.4043C95.2051 74.6777 95.3672 75.0059 95.4883 75.3887C95.6094 75.7676 95.6953 76.1895 95.7461 76.6543V77.0469C95.6953 77.5 95.6094 77.9141 95.4883 78.2891C95.3672 78.6641 95.2051 78.9883 95.002 79.2617C94.7988 79.5352 94.5508 79.7461 94.2578 79.8945C93.9688 80.043 93.6309 80.1172 93.2441 80.1172C92.8613 80.1172 92.5156 80.0371 92.207 79.877C91.9023 79.7168 91.6426 79.4922 91.4277 79.2031C91.2129 78.9141 91.0488 78.5742 90.9355 78.1836C90.8223 77.7891 90.7656 77.3613 90.7656 76.9004ZM92.1777 76.7773V76.9004C92.1777 77.1895 92.2031 77.459 92.2539 77.709C92.3086 77.959 92.3926 78.1797 92.5059 78.3711C92.6191 78.5586 92.7656 78.707 92.9453 78.8164C93.1289 78.9219 93.3477 78.9746 93.6016 78.9746C93.9219 78.9746 94.1855 78.9043 94.3926 78.7637C94.5996 78.623 94.7617 78.4336 94.8789 78.1953C95 77.9531 95.082 77.6836 95.125 77.3867V76.3262C95.1016 76.0957 95.0527 75.8809 94.9785 75.6816C94.9082 75.4824 94.8125 75.3086 94.6914 75.1602C94.5703 75.0078 94.4199 74.8906 94.2402 74.8086C94.0645 74.7227 93.8555 74.6797 93.6133 74.6797C93.3555 74.6797 93.1367 74.7344 92.957 74.8438C92.7773 74.9531 92.6289 75.1035 92.5117 75.2949C92.3984 75.4863 92.3145 75.709 92.2598 75.9629C92.2051 76.2168 92.1777 76.4883 92.1777 76.7773ZM49.627 92.7285V89.7051C49.627 89.4785 49.5859 89.2832 49.5039 89.1191C49.4219 88.9551 49.2969 88.8281 49.1289 88.7383C48.9648 88.6484 48.7578 88.6035 48.5078 88.6035C48.2773 88.6035 48.0781 88.6426 47.9102 88.7207C47.7422 88.7988 47.6113 88.9043 47.5176 89.0371C47.4238 89.1699 47.377 89.3203 47.377 89.4883H45.9707C45.9707 89.2383 46.0312 88.9961 46.1523 88.7617C46.2734 88.5273 46.4492 88.3184 46.6797 88.1348C46.9102 87.9512 47.1855 87.8066 47.5059 87.7012C47.8262 87.5957 48.1855 87.543 48.584 87.543C49.0605 87.543 49.4824 87.623 49.8496 87.7832C50.2207 87.9434 50.5117 88.1855 50.7227 88.5098C50.9375 88.8301 51.0449 89.2324 51.0449 89.7168V92.5352C51.0449 92.8242 51.0645 93.084 51.1035 93.3145C51.1465 93.541 51.207 93.7383 51.2852 93.9062V94H49.8379C49.7715 93.8477 49.7188 93.6543 49.6797 93.4199C49.6445 93.1816 49.627 92.9512 49.627 92.7285ZM49.832 90.1445L49.8438 91.0176H48.8301C48.5684 91.0176 48.3379 91.043 48.1387 91.0938C47.9395 91.1406 47.7734 91.2109 47.6406 91.3047C47.5078 91.3984 47.4082 91.5117 47.3418 91.6445C47.2754 91.7773 47.2422 91.9277 47.2422 92.0957C47.2422 92.2637 47.2812 92.418 47.3594 92.5586C47.4375 92.6953 47.5508 92.8027 47.6992 92.8809C47.8516 92.959 48.0352 92.998 48.25 92.998C48.5391 92.998 48.791 92.9395 49.0059 92.8223C49.2246 92.7012 49.3965 92.5547 49.5215 92.3828C49.6465 92.207 49.7129 92.041 49.7207 91.8848L50.1777 92.5117C50.1309 92.6719 50.0508 92.8438 49.9375 93.0273C49.8242 93.2109 49.6758 93.3867 49.4922 93.5547C49.3125 93.7188 49.0957 93.8535 48.8418 93.959C48.5918 94.0645 48.3027 94.1172 47.9746 94.1172C47.5605 94.1172 47.1914 94.0352 46.8672 93.8711C46.543 93.7031 46.2891 93.4785 46.1055 93.1973C45.9219 92.9121 45.8301 92.5898 45.8301 92.2305C45.8301 91.8945 45.8926 91.5977 46.0176 91.3398C46.1465 91.0781 46.334 90.8594 46.5801 90.6836C46.8301 90.5078 47.1348 90.375 47.4941 90.2852C47.8535 90.1914 48.2637 90.1445 48.7246 90.1445H49.832ZM56.9277 88.8789V96.4375H55.5156V87.6602H56.8164L56.9277 88.8789ZM61.0586 90.7715V90.8945C61.0586 91.3555 61.0039 91.7832 60.8945 92.1777C60.7891 92.5684 60.6309 92.9102 60.4199 93.2031C60.2129 93.4922 59.957 93.7168 59.6523 93.877C59.3477 94.0371 58.9961 94.1172 58.5977 94.1172C58.2031 94.1172 57.8574 94.0449 57.5605 93.9004C57.2676 93.752 57.0195 93.543 56.8164 93.2734C56.6133 93.0039 56.4492 92.6875 56.3242 92.3242C56.2031 91.957 56.1172 91.5547 56.0664 91.1172V90.6426C56.1172 90.1777 56.2031 89.7559 56.3242 89.377C56.4492 88.998 56.6133 88.6719 56.8164 88.3984C57.0195 88.125 57.2676 87.9141 57.5605 87.7656C57.8535 87.6172 58.1953 87.543 58.5859 87.543C58.9844 87.543 59.3379 87.6211 59.6465 87.7773C59.9551 87.9297 60.2148 88.1484 60.4258 88.4336C60.6367 88.7148 60.7949 89.0547 60.9004 89.4531C61.0059 89.8477 61.0586 90.2871 61.0586 90.7715ZM59.6465 90.8945V90.7715C59.6465 90.4785 59.6191 90.207 59.5645 89.957C59.5098 89.7031 59.4238 89.4805 59.3066 89.2891C59.1895 89.0977 59.0391 88.9492 58.8555 88.8438C58.6758 88.7344 58.459 88.6797 58.2051 88.6797C57.9551 88.6797 57.7402 88.7227 57.5605 88.8086C57.3809 88.8906 57.2305 89.0059 57.1094 89.1543C56.9883 89.3027 56.8945 89.4766 56.8281 89.6758C56.7617 89.8711 56.7148 90.084 56.6875 90.3145V91.4512C56.7344 91.7324 56.8145 91.9902 56.9277 92.2246C57.041 92.459 57.2012 92.6465 57.4082 92.7871C57.6191 92.9238 57.8887 92.9922 58.2168 92.9922C58.4707 92.9922 58.6875 92.9375 58.8672 92.8281C59.0469 92.7188 59.1934 92.5684 59.3066 92.377C59.4238 92.1816 59.5098 91.957 59.5645 91.7031C59.6191 91.4492 59.6465 91.1797 59.6465 90.8945ZM63.6543 85V94H62.248V85H63.6543ZM63.4082 90.5957L62.9512 90.5898C62.9551 90.1523 63.0156 89.748 63.1328 89.377C63.2539 89.0059 63.4219 88.6836 63.6367 88.4102C63.8555 88.1328 64.1172 87.9199 64.4219 87.7715C64.7266 87.6191 65.0645 87.543 65.4355 87.543C65.748 87.543 66.0293 87.5859 66.2793 87.6719C66.5332 87.7578 66.752 87.8965 66.9355 88.0879C67.1191 88.2754 67.2578 88.5215 67.3516 88.8262C67.4492 89.127 67.498 89.4941 67.498 89.9277V94H66.0801V89.916C66.0801 89.6113 66.0352 89.3691 65.9453 89.1895C65.8594 89.0098 65.7324 88.8809 65.5645 88.8027C65.3965 88.7207 65.1914 88.6797 64.9492 88.6797C64.6953 88.6797 64.4707 88.7305 64.2754 88.832C64.084 88.9336 63.9238 89.0723 63.7949 89.248C63.666 89.4238 63.5684 89.627 63.502 89.8574C63.4395 90.0879 63.4082 90.334 63.4082 90.5957ZM68.6582 90.9004V90.7656C68.6582 90.3086 68.7246 89.8848 68.8574 89.4941C68.9902 89.0996 69.1816 88.7578 69.4316 88.4688C69.6855 88.1758 69.9941 87.9492 70.3574 87.7891C70.7246 87.625 71.1387 87.543 71.5996 87.543C72.0645 87.543 72.4785 87.625 72.8418 87.7891C73.209 87.9492 73.5195 88.1758 73.7734 88.4688C74.0273 88.7578 74.2207 89.0996 74.3535 89.4941C74.4863 89.8848 74.5527 90.3086 74.5527 90.7656V90.9004C74.5527 91.3574 74.4863 91.7812 74.3535 92.1719C74.2207 92.5625 74.0273 92.9043 73.7734 93.1973C73.5195 93.4863 73.2109 93.7129 72.8477 93.877C72.4844 94.0371 72.0723 94.1172 71.6113 94.1172C71.1465 94.1172 70.7305 94.0371 70.3633 93.877C70 93.7129 69.6914 93.4863 69.4375 93.1973C69.1836 92.9043 68.9902 92.5625 68.8574 92.1719C68.7246 91.7812 68.6582 91.3574 68.6582 90.9004ZM70.0703 90.7656V90.9004C70.0703 91.1855 70.0996 91.4551 70.1582 91.709C70.2168 91.9629 70.3086 92.1855 70.4336 92.377C70.5586 92.5684 70.7188 92.7188 70.9141 92.8281C71.1094 92.9375 71.3418 92.9922 71.6113 92.9922C71.873 92.9922 72.0996 92.9375 72.291 92.8281C72.4863 92.7188 72.6465 92.5684 72.7715 92.377C72.8965 92.1855 72.9883 91.9629 73.0469 91.709C73.1094 91.4551 73.1406 91.1855 73.1406 90.9004V90.7656C73.1406 90.4844 73.1094 90.2188 73.0469 89.9688C72.9883 89.7148 72.8945 89.4902 72.7656 89.2949C72.6406 89.0996 72.4805 88.9473 72.2852 88.8379C72.0938 88.7246 71.8652 88.668 71.5996 88.668C71.334 88.668 71.1035 88.7246 70.9082 88.8379C70.7168 88.9473 70.5586 89.0996 70.4336 89.2949C70.3086 89.4902 70.2168 89.7148 70.1582 89.9688C70.0996 90.2188 70.0703 90.4844 70.0703 90.7656ZM78.6426 87.6602V88.6914H75.0684V87.6602H78.6426ZM76.0996 86.1074H77.5117V92.248C77.5117 92.4434 77.5391 92.5938 77.5938 92.6992C77.6523 92.8008 77.7324 92.8691 77.834 92.9043C77.9355 92.9395 78.0547 92.957 78.1914 92.957C78.2891 92.957 78.3828 92.9512 78.4727 92.9395C78.5625 92.9277 78.6348 92.916 78.6895 92.9043L78.6953 93.9824C78.5781 94.0176 78.4414 94.0488 78.2852 94.0762C78.1328 94.1035 77.957 94.1172 77.7578 94.1172C77.4336 94.1172 77.1465 94.0605 76.8965 93.9473C76.6465 93.8301 76.4512 93.6406 76.3105 93.3789C76.1699 93.1172 76.0996 92.7695 76.0996 92.3359V86.1074ZM79.3223 90.9004V90.7656C79.3223 90.3086 79.3887 89.8848 79.5215 89.4941C79.6543 89.0996 79.8457 88.7578 80.0957 88.4688C80.3496 88.1758 80.6582 87.9492 81.0215 87.7891C81.3887 87.625 81.8027 87.543 82.2637 87.543C82.7285 87.543 83.1426 87.625 83.5059 87.7891C83.873 87.9492 84.1836 88.1758 84.4375 88.4688C84.6914 88.7578 84.8848 89.0996 85.0176 89.4941C85.1504 89.8848 85.2168 90.3086 85.2168 90.7656V90.9004C85.2168 91.3574 85.1504 91.7812 85.0176 92.1719C84.8848 92.5625 84.6914 92.9043 84.4375 93.1973C84.1836 93.4863 83.875 93.7129 83.5117 93.877C83.1484 94.0371 82.7363 94.1172 82.2754 94.1172C81.8105 94.1172 81.3945 94.0371 81.0273 93.877C80.6641 93.7129 80.3555 93.4863 80.1016 93.1973C79.8477 92.9043 79.6543 92.5625 79.5215 92.1719C79.3887 91.7812 79.3223 91.3574 79.3223 90.9004ZM80.7344 90.7656V90.9004C80.7344 91.1855 80.7637 91.4551 80.8223 91.709C80.8809 91.9629 80.9727 92.1855 81.0977 92.377C81.2227 92.5684 81.3828 92.7188 81.5781 92.8281C81.7734 92.9375 82.0059 92.9922 82.2754 92.9922C82.5371 92.9922 82.7637 92.9375 82.9551 92.8281C83.1504 92.7188 83.3105 92.5684 83.4355 92.377C83.5605 92.1855 83.6523 91.9629 83.7109 91.709C83.7734 91.4551 83.8047 91.1855 83.8047 90.9004V90.7656C83.8047 90.4844 83.7734 90.2188 83.7109 89.9688C83.6523 89.7148 83.5586 89.4902 83.4297 89.2949C83.3047 89.0996 83.1445 88.9473 82.9492 88.8379C82.7578 88.7246 82.5293 88.668 82.2637 88.668C81.998 88.668 81.7676 88.7246 81.5723 88.8379C81.3809 88.9473 81.2227 89.0996 81.0977 89.2949C80.9727 89.4902 80.8809 89.7148 80.8223 89.9688C80.7637 90.2188 80.7344 90.4844 80.7344 90.7656Z" fill="#686868"/>
</svg>
